<svg viewBox="0 1 511 511.99838" xmlns="http://www.w3.org/2000/svg"><path d="m201.496094 215.980469c5.519531 0 10-4.480469 10-10s-4.480469-10-10-10c-5.519532 0-10 4.480469-10 10s4.480468 10 10 10zm0 0"/><path d="m499.160156 205.980469h-39.4375c-5.09375-20.855469-13.292968-40.625-24.449218-58.945313l23.082031-23.082031c3.453125-3.453125 3.90625-8.894531 1.070312-12.875-16.261719-22.820313-36.078125-42.636719-58.898437-58.898437-3.976563-2.835938-9.417969-2.382813-12.875 1.070312l-23.074219 23.070312c-18.402344-11.242187-37.875-19.429687-58.082031-24.421874v-38.585938c0-4.882812-3.527344-9.050781-8.339844-9.859375-27.304688-4.597656-55.863281-4.609375-83.3125 0-4.820312.808594-8.347656 4.976563-8.347656 9.859375v38.570312c-21.125 5.148438-41.457032 13.496094-59.585938 24.457032l-23.089844-23.089844c-3.457031-3.453125-8.898437-3.90625-12.875-1.074219-22.824218 16.265625-42.640624 36.082031-58.898437 58.902344-2.835937 3.976563-2.382813 9.421875 1.070313 12.875l23.082031 23.078125c-11.152344 18.324219-19.351563 38.089844-24.445313 58.949219h-37.925781c-4.882813 0-9.050781 3.523437-9.859375 8.339843-2.300781 13.667969-3.46875 27.6875-3.46875 41.65625 0 13.972657 1.167969 27.992188 3.46875 41.660157.808594 4.816406 4.976562 8.339843 9.859375 8.339843h37.925781c5.074219 20.695313 13.269532 40.386719 24.445313 58.726563l-23.082031 23.082031c-3.453126 3.453125-3.90625 8.894532-1.074219 12.871094 16.25 22.8125 36.066406 42.628906 58.902343 58.902344 3.976563 2.835937 9.417969 2.382812 12.871094-1.070313l23.082032-23.082031c18.347656 11.1875 37.992187 19.378906 58.597656 24.441406v38.796875c0 4.882813 3.523437 9.050781 8.339844 9.859375 13.824218 2.328125 27.742187 3.496094 41.664062 3.496094 13.917969 0 27.835938-1.167969 41.65625-3.496094 4.8125-.808594 8.339844-4.976562 8.339844-9.859375v-38.792969c20.96875-5.113281 40.773437-13.3125 59.074218-24.445312l23.082032 23.082031c3.453125 3.453125 8.894531 3.90625 12.875 1.070313 22.820312-16.261719 42.636718-36.078125 58.898437-58.898438 2.835938-3.980468 2.378907-9.421875-1.074219-12.875l-23.078124-23.078125c11.183593-18.351562 19.378906-38.042969 24.441406-58.730469h39.445312c4.882813 0 9.050782-3.523437 9.859375-8.339843 2.304688-13.667969 3.46875-27.6875 3.46875-41.660157 0-13.96875-1.164062-27.988281-3.46875-41.65625-.808593-4.816406-4.976562-8.339843-9.859375-8.339843zm-8.613281 80h-38.835937c-4.753907 0-8.851563 3.347656-9.796876 8.003906-4.832031 23.746094-14.15625 46.152344-27.714843 66.597656-2.628907 3.964844-2.101563 9.234375 1.261719 12.597657l22.65625 22.65625c-12.253907 15.941406-26.472657 30.164062-42.414063 42.417968l-22.65625-22.65625c-3.367187-3.363281-8.636719-3.890625-12.601563-1.261718-20.015624 13.28125-43.167968 22.863281-66.949218 27.714843-4.65625.949219-8 5.042969-8 9.796875v38.1875c-19.941406 2.617188-40.054688 2.617188-60 0v-38.1875c0-4.753906-3.34375-8.847656-8.003906-9.796875-23.640626-4.824219-46.003907-14.148437-66.46875-27.71875-3.964844-2.628906-9.234376-2.097656-12.597657 1.265625l-22.65625 22.65625c-15.953125-12.261718-30.171875-26.480468-42.417969-42.417968l22.65625-22.65625c3.363282-3.363282 3.894532-8.632813 1.265626-12.597657-13.550782-20.433593-22.875-42.839843-27.71875-66.601562-.949219-4.65625-5.042969-8-9.796876-8h-37.3125c-1.292968-9.910157-1.945312-19.96875-1.945312-30 0-10.035157.652344-20.09375 1.945312-30h37.3125c4.753907 0 8.851563-3.347657 9.796876-8.003907 4.882812-23.976562 14.210937-46.457031 27.714843-66.816406 2.632813-3.964844 2.105469-9.234375-1.261719-12.601562l-22.65625-22.65625c12.253907-15.941406 26.472657-30.164063 42.417969-42.417969l22.65625 22.660156c3.363281 3.363281 8.636719 3.890625 12.597657 1.261719 19.890624-13.195312 43.21875-22.78125 67.464843-27.714844 4.660157-.949218 8.007813-5.046875 8.007813-9.800781v-37.960937c19.886718-2.589844 40.203125-2.582032 60 0v37.960937c0 4.753906 3.347656 8.851563 8.003906 9.800781 23.445312 4.769532 45.019531 13.832032 65.949219 27.707032 3.964843 2.625 9.230469 2.097656 12.59375-1.265626l22.65625-22.648437c15.945312 12.253906 30.164062 26.476563 42.417969 42.417969l-22.65625 22.65625c-3.363282 3.367187-3.890626 8.636718-1.261719 12.601562 13.511719 20.363282 22.835937 42.84375 27.714843 66.8125.945313 4.660156 5.042969 8.007813 9.796876 8.007813h38.835937c1.292969 9.90625 1.945313 19.964843 1.945313 30 0 10.03125-.652344 20.089843-1.945313 30zm0 0"/><path d="m256.496094 105.980469c-82.710938 0-150 67.289062-150 150 0 82.886719 67.429687 149.996093 150 149.996093 82.628906 0 149.996094-67.15625 149.996094-149.996093 0-82.359375-66.867188-150-149.996094-150zm114.753906 89h-50.53125c-5.132812-25.859375-13.1875-47.042969-23.296875-62.242188 31.253906 10.523438 58.03125 32.734375 73.828125 62.242188zm-244.753906 61c0-14.320313 2.335937-28.105469 6.632812-41h28.386719c5.523437 0 10-4.476563 10-10 0-5.523438-4.476563-10-10-10h-19.789063c15.644532-29.320313 42.195313-51.972657 74.203126-62.511719-5.742188 8.523438-10.859376 18.957031-15.164063 31.128906-1.839844 5.207032.890625 10.921875 6.097656 12.761719s10.921875-.890625 12.761719-6.09375c9.652344-27.316406 23.78125-44.285156 36.871094-44.285156 17.230468 0 34.894531 28.394531 43.78125 69h-58.800782c-5.523437 0-10 4.476562-10 10 0 5.523437 4.476563 10 10 10h62.300782c1.792968 13.226562 2.714844 26.976562 2.714844 41 0 13.320312-.832032 26.394531-2.453126 39h-95.085937c-1.625-12.605469-2.457031-25.679688-2.457031-39 0-3.445313.050781-6.800781.15625-9.96875.175781-5.519531-4.152344-10.136719-9.671875-10.316407-5.535157-.160156-10.140625 4.148438-10.320313 9.671876-.109375 3.378906-.164062 6.953124-.164062 10.613281 0 13.273437.773437 26.34375 2.292968 39h-56.308593c-3.96875-12.582031-5.984375-25.667969-5.984375-39zm14.1875 58.996093h51.207031c4.621094 24.128907 11.980469 44.960938 21.480469 60.621094.789062 1.296875 1.582031 2.53125 2.375 3.726563-32.089844-10.707031-59.375-33.714844-75.0625-64.347657zm115.8125 71c-17.605469 0-35.457032-29.242187-44.203125-71.007812h88.402343c-8.746093 41.765625-26.59375 71.007812-44.199218 71.007812zm40.75-6.65625c.792968-1.191406 1.585937-2.425781 2.375-3.726562 9.5-15.65625 16.859375-36.5 21.476562-60.625h51.210938c-15.691406 30.632812-42.972656 53.648438-75.0625 64.351562zm83.265625-84.339843h-56.3125c1.519531-12.65625 2.292969-25.726563 2.292969-39 0-13.972657-.855469-27.710938-2.539063-41h55.90625c4.402344 13.175781 6.632813 26.933593 6.632813 41 0 13.332031-2.015626 26.417969-5.980469 39zm0 0"/></svg>